<?xml version="1.0" encoding="UTF-8"?>
<svg id="Layer_1" data-name="Layer 1" xmlns="http://www.w3.org/2000/svg" viewBox="0 0 16 16">
  <defs>
    <style>
      .cls-1 {
        fill: #ffc639;
      }
    </style>
  </defs>
  <polygon class="cls-1" points="10.8 6.6 8 1 5.2 6.6 1 1 1 15 15 15 15 1 10.8 6.6"/>
  <path d="M15,16H1c-.55,0-1-.45-1-1V1C0,.57.28.19.68.05c.41-.14.86,0,1.12.35l3.23,4.31L7.11.55c.34-.68,1.45-.68,1.79,0l2.08,4.15L14.2.4c.26-.34.71-.48,1.12-.35.41.14.68.52.68.95v14c0,.55-.45,1-1,1ZM2,14h12V4l-2.4,3.2c-.21.28-.54.42-.89.4-.34-.03-.65-.24-.8-.55l-1.91-3.81-1.91,3.81c-.16.31-.46.52-.8.55-.35.03-.68-.12-.89-.4l-2.4-3.2v10Z"/>
</svg>