<?xml version="1.0" encoding="UTF-8"?>
<svg id="Layer_1" data-name="Layer 1" xmlns="http://www.w3.org/2000/svg" viewBox="0 0 100 150">
  <defs>
    <style>
      .cls-1 {
        fill: #e54545;
      }

      .cls-2 {
        fill: #368e36;
      }

      .cls-3 {
        fill: #ffc639;
      }

      .cls-4 {
        fill: #5050e2;
      }
    </style>
  </defs>
  <g>
    <rect class="cls-4" x="6.5" y="6.5" width="41" height="66" rx="5.5" ry="5.5"/>
    <path d="M42,8c2.21,0,4,1.79,4,4v55c0,2.21-1.79,4-4,4H12c-2.21,0-4-1.79-4-4V12c0-2.21,1.79-4,4-4h30M42,5H12c-3.87,0-7,3.13-7,7v55c0,3.87,3.13,7,7,7h30c3.87,0,7-3.13,7-7V12c0-3.87-3.13-7-7-7h0Z"/>
  </g>
  <g>
    <rect class="cls-2" x="52.5" y="6.5" width="41" height="66" rx="5.5" ry="5.5"/>
    <path d="M88,8c2.21,0,4,1.79,4,4v55c0,2.21-1.79,4-4,4h-30c-2.21,0-4-1.79-4-4V12c0-2.21,1.79-4,4-4h30M88,5h-30c-3.87,0-7,3.13-7,7v55c0,3.87,3.13,7,7,7h30c3.87,0,7-3.13,7-7V12c0-3.87-3.13-7-7-7h0Z"/>
  </g>
  <g>
    <rect class="cls-3" x="52.5" y="77.5" width="41" height="66" rx="5.5" ry="5.5"/>
    <path d="M88,79c2.21,0,4,1.79,4,4v55c0,2.21-1.79,4-4,4h-30c-2.21,0-4-1.79-4-4v-55c0-2.21,1.79-4,4-4h30M88,76h-30c-3.87,0-7,3.13-7,7v55c0,3.87,3.13,7,7,7h30c3.87,0,7-3.13,7-7v-55c0-3.87-3.13-7-7-7h0Z"/>
  </g>
  <g>
    <rect class="cls-1" x="6.5" y="77.5" width="41" height="66" rx="5.5" ry="5.5"/>
    <path d="M42,79c2.21,0,4,1.79,4,4v55c0,2.21-1.79,4-4,4H12c-2.21,0-4-1.79-4-4v-55c0-2.21,1.79-4,4-4h30M42,76H12c-3.87,0-7,3.13-7,7v55c0,3.87,3.13,7,7,7h30c3.87,0,7-3.13,7-7v-55c0-3.87-3.13-7-7-7h0Z"/>
  </g>
</svg>