<?xml version="1.0" encoding="UTF-8"?>
<svg id="Layer_1" xmlns="http://www.w3.org/2000/svg" viewBox="0 0 100 100">
  <defs>
    <style>
      .cls-1 {
        fill: #ffecbb;
      }

      .cls-2 {
        fill: #8c5e14;
      }
    </style>
  </defs>
  <g>
    <path class="cls-2" d="M9.75,73.91c-6.4-14.99-.04-32.46,14.5-39.82,6.4,14.99.04,32.46-14.5,39.82Z"/>
    <path d="M23.74,35.49c2.61,6.76,2.69,14.16.19,21.03-2.5,6.88-7.32,12.49-13.67,15.99-2.61-6.76-2.69-14.16-.19-21.03,2.5-6.88,7.32-12.49,13.67-15.99M24.74,32.74h0c-16.02,7.47-22.95,26.5-15.49,42.52h0s0,0,0,0c16.02-7.47,22.95-26.5,15.49-42.52h0Z"/>
  </g>
  <g>
    <path class="cls-1" d="M50,81c-17.09,0-31-13.91-31-31s13.91-31,31-31,31,13.91,31,31-13.91,31-31,31Z"/>
    <path d="M50,20c16.54,0,30,13.46,30,30s-13.46,30-30,30-30-13.46-30-30,13.46-30,30-30M50,18c-17.67,0-32,14.33-32,32s14.33,32,32,32,32-14.33,32-32-14.33-32-32-32h0Z"/>
  </g>
  <g>
    <path class="cls-2" d="M21.64,42.81c-2.68,0-4.92-2.18-5-4.86l-.49-17.01c-.04-1.33.45-2.6,1.37-3.57.92-.97,2.16-1.53,3.49-1.57l56.12-1.6c2.68,0,4.92,2.18,5,4.86l.49,17.01c.04,1.33-.45,2.6-1.37,3.57-.92.97-2.16,1.53-3.49,1.57l-56.12,1.6Z"/>
    <path d="M77.13,15.2c2.14,0,3.94,1.74,4,3.89l.49,17.01c.06,2.2-1.68,4.05-3.88,4.11l-55.98,1.6h-.12c-2.14,0-3.94-1.74-4-3.88l-.49-17.01c-.06-2.2,1.68-4.05,3.88-4.11l55.98-1.6h.12M77.13,13.2c-.06,0-.11,0-.17,0l-55.98,1.6c-3.3.09-5.92,2.87-5.83,6.17l.49,17.01c.09,3.24,2.77,5.83,6,5.83.06,0,.11,0,.17,0l55.98-1.6c3.3-.09,5.92-2.87,5.83-6.17l-.49-17.01c-.09-3.24-2.77-5.83-6-5.83h0Z"/>
  </g>
</svg>