<?xml version="1.0" encoding="UTF-8"?>
<svg id="Layer_1" xmlns="http://www.w3.org/2000/svg" viewBox="0 0 100 100">
  <defs>
    <style>
      .cls-1 {
        fill: #ffecbb;
      }

      .cls-2 {
        fill: #7fecef;
      }
    </style>
  </defs>
  <g>
    <path class="cls-1" d="M50,81c-17.09,0-31-13.91-31-31s13.91-31,31-31,31,13.91,31,31-13.91,31-31,31Z"/>
    <path d="M50,20c16.54,0,30,13.46,30,30s-13.46,30-30,30-30-13.46-30-30,13.46-30,30-30M50,18c-17.67,0-32,14.33-32,32s14.33,32,32,32,32-14.33,32-32-14.33-32-32-32h0Z"/>
  </g>
  <g>
    <path class="cls-2" d="M50,33c-15.41,0-31-4.47-31-13s15.59-13,31-13,31,4.47,31,13-15.59,13-31,13ZM50,13c-15.5,0-24,4.39-24.91,6.62l-.15.38.15.38c.91,2.24,9.4,6.62,24.91,6.62s24-4.39,24.91-6.62l.15-.38-.15-.38c-.91-2.24-9.4-6.62-24.91-6.62Z"/>
    <path d="M50,8c14.54,0,30,4.21,30,12s-15.46,12-30,12-30-4.21-30-12,15.46-12,30-12M50,28c15.61,0,24.65-4.32,25.83-7.25l.31-.75-.31-.75c-1.19-2.92-10.22-7.25-25.83-7.25s-24.64,4.32-25.83,7.25l-.31.75.31.75c1.19,2.92,10.22,7.25,25.83,7.25M50,6c-15.41,0-32,4.38-32,14s16.59,14,32,14,32-4.38,32-14-16.59-14-32-14h0ZM50,26c-15.16,0-23.28-4.28-23.98-6,.7-1.72,8.82-6,23.98-6s23.28,4.28,23.98,6c-.7,1.72-8.82,6-23.98,6h0ZM74.01,20.07h0,0Z"/>
  </g>
</svg>