<?xml version="1.0" encoding="UTF-8"?>
<svg id="Layer_1" xmlns="http://www.w3.org/2000/svg" viewBox="0 0 100 100">
  <defs>
    <style>
      .cls-1 {
        fill: #757575;
      }

      .cls-2 {
        fill: #ffecbb;
      }
    </style>
  </defs>
  <g>
    <path class="cls-2" d="M50,81c-17.09,0-31-13.91-31-31s13.91-31,31-31,31,13.91,31,31-13.91,31-31,31Z"/>
    <path d="M50,20c16.54,0,30,13.46,30,30s-13.46,30-30,30-30-13.46-30-30,13.46-30,30-30M50,18c-17.67,0-32,14.33-32,32s14.33,32,32,32,32-14.33,32-32-14.33-32-32-32h0Z"/>
  </g>
  <g>
    <path class="cls-1" d="M79.53,79.08c-.34,0-.81-.11-1.14-.65-2.16-3.46-2.87-10.79-3.55-17.88-.98-10.2-1.99-20.75-7.38-23.45-2-1-4.04-1.51-6.06-1.51-5.71,0-9.8,3.95-11.44,5.85-1.71-1.79-5.96-5.47-11.83-5.47-1.83,0-3.69.37-5.51,1.1-5.69,2.27-6.65,13.06-7.58,23.5-.63,7.1-1.29,14.44-3.43,17.86-.34.54-.81.65-1.14.65-.72,0-1.47-.54-1.47-1.44v-27.64c0-16.18,12.63-29.76,28.76-30.91l1.11-.08-1.79-10.01h5.73l-1.74,10.01,1.11.08c16.16,1.12,28.82,14.7,28.82,30.92v27.64c0,.53-.24.86-.45,1.05-.28.25-.65.4-1.03.4h0Z"/>
    <path d="M51.62,10l-1.35,7.74-.3,1.74-.31-1.74-1.38-7.74h3.34M49.97,19.93l2.13.15c15.64,1.09,27.89,14.23,27.89,29.92v27.64c0,.44-.47.44-.47.44-.13,0-.21-.05-.29-.18-2.04-3.26-2.73-10.48-3.4-17.45-1.05-10.96-2.05-21.31-7.93-24.25-2.14-1.07-4.33-1.61-6.51-1.61-5.38,0-9.41,3.26-11.48,5.41-2.16-2.02-6.3-5.03-11.79-5.03-1.96,0-3.94.39-5.88,1.17-6.26,2.5-7.2,13.11-8.21,24.34-.62,6.98-1.27,14.21-3.28,17.42-.08.13-.16.18-.29.18,0,0-.47,0-.47-.44v-27.64c0-15.66,12.23-28.8,27.84-29.91l2.14-.15M54,8h-8.11l1.8,10.09c-16.59,1.18-29.69,15.01-29.69,31.91v27.64c0,1.5,1.23,2.44,2.47,2.44.75,0,1.51-.35,1.99-1.12,5.36-8.57,1.66-37.42,10.53-40.97,1.82-.73,3.54-1.02,5.14-1.02,7.19,0,11.87,6.03,11.87,6.03,0,0,4.48-6.4,11.4-6.4,1.73,0,3.61.4,5.61,1.4,8.54,4.27,5.17,32.4,10.53,40.97.48.77,1.24,1.12,1.99,1.12,1.24,0,2.47-.94,2.47-2.44v-27.64c0-16.92-13.13-30.76-29.75-31.91l1.75-10.09h0Z"/>
  </g>
</svg>