<?xml version="1.0" encoding="UTF-8"?>
<svg id="Layer_1" xmlns="http://www.w3.org/2000/svg" viewBox="0 0 100 100">
  <defs>
    <style>
      .cls-1 {
        fill: #f4f4f4;
      }
    </style>
  </defs>
  <g>
    <path class="cls-1" d="M42.3,81.06l-.58-.15h0c.19.05.39.11.58.15Z"/>
    <path d="M41.72,80.9h0s.21.06.21.06c-.07-.02-.14-.04-.21-.06h0ZM41.93,80.96c.12.04.25.07.37.1l-.37-.1h0Z"/>
  </g>
  <g>
    <path class="cls-1" d="M76.12,88.92c-.44,0-.87-.06-1.3-.17l-32.26-8.65c-.21-.05-.38-.1-.54-.15-3.75-.99-7.21-2.64-10.35-4.94-.29-.21-.63-.32-1.03-.32-.77,0-1.62.41-2.53.84-.48.23-1.12.53-1.49.62-.12-.47-.06-1.71-.02-2.49.09-1.66.16-3.09-.53-3.92-.19-.23-.56-.51-1.19-.51-.83,0-1.91.5-3.17,1.08-.52.24-1.21.56-1.73.74.21-.74.71-1.91,1.04-2.69,1.02-2.38,1.57-3.78,1.11-4.72-.15-.31-.54-.81-1.46-.81-.8,0-1.85.39-2.96.81-.51.19-1.11.42-1.57.55.34-.82,1.08-2.12,1.57-2.98,1.41-2.49,2.13-3.83,1.93-4.79-.44-2.11-.66-4.26-.66-6.39,0-5.07,1.25-10.09,3.61-14.53.56-.88.21-2.49-.74-5.95l-.12-.44c-1.44-5.31-3.63-13.33-.13-16.29,0,0,.05,0,.08,0,2.07,0,8.74,5.16,11.98,9.79.19.28.5.43.82.43.17,0,.33-.04.48-.13,4.56-2.53,9.75-3.87,15.01-3.87,2.51,0,4.98.3,7.36.88l.53.14s.08.03.13.04c2.48.66,4.83,1.61,7,2.81.15.08.32.13.48.13.32,0,.63-.15.82-.43,3.18-4.54,9.95-9.79,11.97-9.79.07,0,.1,0,.1.01,4.23,3.64,1.67,11.55-.03,16.79-1.11,3.41-1.57,4.96-.94,5.95,2.33,4.37,3.58,9.4,3.58,14.46,0,1.76-.15,3.54-.45,5.28-.14.83.39,1.78,1.34,3.38.3.5.75,1.26.98,1.77-.27,0-.57-.04-.87-.06-.4-.04-.81-.08-1.16-.08-1.04,0-1.71.35-1.97,1.04-.33.84.16,1.92,1.13,3.9.29.59.72,1.46.93,2.04-.42-.06-.91-.19-1.35-.31-.78-.21-1.59-.43-2.26-.43-.88,0-1.33.39-1.55.72-.33.48-.67.96-1.02,1.42-.2.27-.25.61-.15.93.11.31.37.55.69.64l4.19,1.12c2.66.72,4.25,3.46,3.53,6.12l-2.07,7.73c-.59,2.18-2.57,3.71-4.83,3.71ZM83.02,60.86h0Z"/>
    <path d="M22.28,13.53h0,0M78.3,13.78h0,0M78.02,13.82c3.3,3.38.96,10.62-.61,15.45-1.1,3.39-1.71,5.29-.89,6.71,2.27,4.28,3.47,9.13,3.47,14.01,0,1.7-.15,3.43-.43,5.11-.21,1.24.53,2.48,1.47,4.07.02.04.05.08.07.12-.09,0-.18,0-.27,0-1.96,0-2.66,1.05-2.9,1.67-.51,1.29.19,2.73,1.16,4.71.02.05.05.1.07.15-.63-.16-1.26-.29-1.85-.29-1.4,0-2.09.73-2.37,1.15-.32.47-.66.94-1,1.39-.4.53-.51,1.23-.29,1.85.22.63.73,1.11,1.37,1.28l4.19,1.12c1.03.28,1.9.94,2.43,1.87.53.93.68,2,.4,3.04l-2.07,7.73c-.47,1.75-2.06,2.97-3.86,2.97-.35,0-.7-.05-1.04-.14l-32.26-8.65s-.07-.02-.11-.03c-.13-.03-.26-.07-.39-.11-.03,0-.06-.02-.1-.03-3.58-.94-6.93-2.54-9.96-4.77-.46-.34-1.02-.52-1.63-.52-1,0-1.99.48-2.96.93-.04.02-.08.04-.12.06,0-.35.03-.7.04-.98.09-1.79.18-3.48-.75-4.61-.47-.57-1.16-.88-1.96-.88h0c-.93,0-1.95.42-3.12.96.06-.15.13-.3.18-.43,1.03-2.41,1.77-4.15,1.08-5.56-.42-.85-1.3-1.36-2.35-1.36h0c-.75,0-1.59.25-2.49.57.14-.25.28-.49.4-.7,1.57-2.78,2.32-4.17,2.04-5.48-.42-2.05-.64-4.14-.64-6.2,0-4.89,1.2-9.73,3.47-14.02.78-1.35.32-3.26-.63-6.73l-.12-.44c-1.25-4.6-3.31-12.18-.74-14.99,1.99.48,7.9,5.06,10.88,9.32.39.55,1.01.85,1.64.85.33,0,.66-.08.97-.25,4.41-2.45,9.44-3.75,14.53-3.75,2.43,0,4.82.29,7.09.84l.49.13c.06.02.12.04.18.06,2.4.64,4.68,1.56,6.77,2.72.31.17.64.25.97.25.63,0,1.25-.3,1.64-.85,2.98-4.26,8.89-8.84,10.88-9.32M78.29,11.78c-2.64,0-9.64,5.72-12.79,10.22-2.25-1.25-4.68-2.22-7.22-2.9h0s-.68-.19-.68-.19c-2.44-.6-4.98-.91-7.6-.91-5.62,0-10.91,1.45-15.5,4-3.15-4.51-10.15-10.21-12.8-10.21-.29,0-.53.07-.7.21-4.12,3.44-1.64,12.07-.09,17.78.71,2.6,1.22,4.59.82,5.22-2.38,4.47-3.73,9.58-3.73,15,0,2.26.24,4.47.68,6.6.28,1.31-4.11,7.16-3.68,8.4.07.2.26.28.54.28,1.19,0,3.93-1.48,5.15-1.48.27,0,.47.07.56.25.58,1.19-2.97,6.84-2.25,7.94.08.12.23.18.43.18,1.2,0,4.25-1.97,5.47-1.97.19,0,.33.05.41.15.91,1.1-.36,5.67.69,6.64.12.11.28.16.47.16,1.07,0,3.08-1.47,4.17-1.47.17,0,.32.04.44.12,3.16,2.32,6.75,4.07,10.64,5.09.19.06.39.12.58.16l32.26,8.65c.52.14,1.04.21,1.56.21,2.65,0,5.07-1.77,5.79-4.45l2.07-7.73c.86-3.2-1.04-6.49-4.24-7.35l-4.19-1.12c.36-.48.71-.97,1.05-1.47.13-.2.39-.27.72-.27,1.06,0,2.91.79,3.96.79.35,0,.61-.09.72-.31.47-.92-2.58-5.34-2.2-6.31.12-.31.53-.4,1.04-.4.65,0,1.48.14,2.13.14.53,0,.93-.09,1.03-.43.28-1.01-2.64-4.51-2.46-5.55.3-1.77.46-3.59.46-5.45,0-5.42-1.35-10.53-3.73-15-1.27-2,7.73-17,.73-23-.17-.15-.41-.22-.71-.22h0Z"/>
  </g>
</svg>