<?xml version="1.0" encoding="UTF-8"?>
<svg id="Layer_1" xmlns="http://www.w3.org/2000/svg" viewBox="0 0 100 100">
  <defs>
    <style>
      .cls-1 {
        fill: #ffecbb;
      }

      .cls-2 {
        fill: none;
        stroke: #000;
        stroke-linejoin: round;
        stroke-width: 2px;
      }
    </style>
  </defs>
  <g>
    <path class="cls-1" d="M50,81c-17.09,0-31-13.91-31-31s13.91-31,31-31,31,13.91,31,31-13.91,31-31,31Z"/>
    <path d="M50,20c16.54,0,30,13.46,30,30s-13.46,30-30,30-30-13.46-30-30,13.46-30,30-30M50,18c-17.67,0-32,14.33-32,32s14.33,32,32,32,32-14.33,32-32-14.33-32-32-32h0Z"/>
  </g>
  <path class="cls-2" d="M63,22c1,10-31.67,36-42,39"/>
  <path d="M36.64,39h12.72c1.36,0,2.37,1.25,2.09,2.58l-1.86,8.73c-.21.99-1.08,1.69-2.09,1.69h-9c-1.01,0-1.88-.71-2.09-1.69l-1.86-8.73c-.28-1.33.73-2.58,2.09-2.58Z"/>
</svg>