<?xml version="1.0" encoding="UTF-8"?>
<svg id="Layer_1" xmlns="http://www.w3.org/2000/svg" viewBox="0 0 100 100">
  <defs>
    <style>
      .cls-1 {
        stroke: #000;
        stroke-linecap: round;
        stroke-miterlimit: 10;
        stroke-width: 2px;
      }

      .cls-1, .cls-2 {
        fill: #630;
      }

      .cls-3 {
        fill: #ffecbb;
      }
    </style>
  </defs>
  <g>
    <path class="cls-3" d="M50,81c-17.09,0-31-13.91-31-31s13.91-31,31-31,31,13.91,31,31-13.91,31-31,31Z"/>
    <path d="M50,20c16.54,0,30,13.46,30,30s-13.46,30-30,30-30-13.46-30-30,13.46-30,30-30M50,18c-17.67,0-32,14.33-32,32s14.33,32,32,32,32-14.33,32-32-14.33-32-32-32h0Z"/>
  </g>
  <g>
    <path class="cls-2" d="M50,53c-30.36,0-49-5.24-49-9s18.64-9,49-9,49,5.24,49,9-18.64,9-49,9Z"/>
    <path d="M50,36c13.23,0,25.64,1.03,34.96,2.89,12.27,2.45,13.04,5.08,13.04,5.11s-.77,2.66-13.04,5.11c-9.32,1.86-21.74,2.89-34.96,2.89s-25.64-1.03-34.96-2.89c-12.27-2.45-13.04-5.08-13.04-5.11s.77-2.66,13.04-5.11c9.32-1.86,21.74-2.89,34.96-2.89M50,34C22.39,34,0,38.48,0,44s22.39,10,50,10,50-4.48,50-10-22.39-10-50-10h0Z"/>
  </g>
  <path class="cls-1" d="M81,42c0-11.54-11.59-31-17-31-2.72,0-4.52,1.82-6.42,3.76-2.06,2.09-4.19,4.24-7.58,4.24s-5.6-2.18-7.71-4.29c-1.91-1.91-3.71-3.71-6.29-3.71-4.93,0-17,18.68-17,31"/>
</svg>