<?xml version="1.0" encoding="UTF-8"?>
<svg id="Layer_1" xmlns="http://www.w3.org/2000/svg" viewBox="0 0 100 100">
  <defs>
    <style>
      .cls-1 {
        fill: #ffecbb;
      }

      .cls-2 {
        fill: #e54545;
        stroke: #000;
        stroke-linejoin: round;
        stroke-width: 2px;
      }

      .cls-3 {
        fill: #bd5dd1;
      }
    </style>
  </defs>
  <g>
    <path class="cls-1" d="M50,81c-17.09,0-31-13.91-31-31s13.91-31,31-31,31,13.91,31,31-13.91,31-31,31Z"/>
    <path d="M50,20c16.54,0,30,13.46,30,30s-13.46,30-30,30-30-13.46-30-30,13.46-30,30-30M50,18c-17.67,0-32,14.33-32,32s14.33,32,32,32,32-14.33,32-32-14.33-32-32-32h0Z"/>
  </g>
  <g>
    <path class="cls-3" d="M80.72,56.16c-25.64-3.88-54.35-26.14-57.14-35.17-.49-1.59.05-2.09.23-2.25,6.88-6.28,16.18-9.74,26.19-9.74,8.14,0,15.83,2.29,22.22,6.61,8.76,5.93,13.78,14.82,13.78,24.39,0,5.73-1.82,11.3-5.28,16.16Z"/>
    <path d="M50,10c7.94,0,15.43,2.23,21.66,6.44,8.48,5.74,13.34,14.33,13.34,23.56,0,5.32-1.63,10.51-4.74,15.08-11.05-1.8-24.09-7.33-36-15.27-11.96-7.98-18.61-15.5-19.73-19.11-.14-.46-.24-1.05-.05-1.22,6.69-6.11,15.75-9.48,25.52-9.48M50,8c-10.58,0-20.12,3.84-26.87,10-6.28,5.73,27.87,35,58.05,39.24,3.68-4.98,5.82-10.89,5.82-17.24,0-10.24-5.57-19.36-14.22-25.22-6.28-4.25-14.19-6.78-22.78-6.78h0Z"/>
  </g>
  <g>
    <path class="cls-3" d="M22.73,56.49c-1.13,0-2.26-.06-3.35-.19-3.52-4.89-5.37-10.52-5.37-16.3,0-17.09,16.15-31,36-31,8.14,0,15.83,2.29,22.22,6.61,1.35.91,1.02,3.11.5,4.79-3.69,12.04-27.89,36.09-49.99,36.09Z"/>
    <path d="M50,10c7.94,0,15.43,2.23,21.66,6.44.95.64.32,2.97.11,3.67-3.62,11.8-27.36,35.38-49.04,35.38-.94,0-1.88-.05-2.8-.13-3.23-4.63-4.93-9.92-4.93-15.35,0-16.54,15.7-30,35-30M50,8c-20.43,0-37,14.33-37,32,0,6.35,2.14,12.26,5.82,17.24,1.3.17,2.6.25,3.91.25,28.16,0,58.32-37.11,50.05-42.71-6.28-4.25-14.19-6.78-22.78-6.78h0Z"/>
  </g>
  <rect class="cls-2" x="45.76" y="25.76" width="8.49" height="8.49" transform="translate(-6.57 44.14) rotate(-45)"/>
</svg>