<?xml version="1.0" encoding="UTF-8"?>
<svg id="Layer_1" data-name="Layer 1" xmlns="http://www.w3.org/2000/svg" viewBox="0 0 64 64">
  <defs>
    <style>
      .cls-1 {
        fill: #bc431e;
      }

      .cls-2 {
        fill: none;
        stroke: #000;
        stroke-linecap: round;
        stroke-linejoin: round;
        stroke-width: 4px;
      }

      .cls-3 {
        fill: #ff742e;
      }
    </style>
  </defs>
  <rect class="cls-3" x="0" y="0" width="64" height="64"/>
  <rect x="18" y="25" width="8" height="16" rx="4" ry="4"/>
  <rect x="38" y="25" width="8" height="16" rx="4" ry="4"/>
  <path class="cls-2" d="M45.5,48.5c-4.54-2.42-13.72-.32-16,4"/>
  <path class="cls-1" d="M18.17,15.16c6.46,4.13,22.82,4.02,29.66.38.1-.08.28-.1.34.03-4.89,8.06-20.43,8.38-27.52,3.03-1.14-.88-2.14-1.98-2.83-3.25-.05-.09-.02-.2.08-.25.1-.06.19,0,.27.06h0Z"/>
</svg>