<?xml version="1.0" encoding="UTF-8"?>
<svg id="Layer_1" data-name="Layer 1" xmlns="http://www.w3.org/2000/svg" viewBox="0 0 64 64">
  <defs>
    <style>
      .cls-1 {
        fill: #6452e8;
      }

      .cls-2 {
        fill: none;
        stroke: #101024;
        stroke-linecap: round;
        stroke-miterlimit: 10;
        stroke-width: 4px;
      }

      .cls-3 {
        fill: #4d319b;
      }

      rect {
        fill: #101024;
      }
    </style>
  </defs>
  <rect class="cls-1" x="0" y="0" width="64" height="64"/>
  <rect x="8" y="24" width="8" height="16" rx="4" ry="4"/>
  <rect x="50" y="24" width="8" height="16" rx="4" ry="4"/>
  <path class="cls-3" d="M30.36,17.86c-.58-.11-1.18.05-1.64.43-.45.38-.72.94-.72,1.54v27.17c0,.95.67,1.77,1.61,1.96,1.4.28,2.71.42,3.94.42,2.83,0,5.18-.75,7-2.25,2.4-1.98,3.66-5.1,3.64-9.02-.04-8.39-5.96-18.83-13.83-20.25Z"/>
  <path class="cls-2" d="M30,19.83c12,2.17,20,31.17,0,27.17"/>
</svg>