<?xml version="1.0" encoding="UTF-8"?>
<svg xmlns="http://www.w3.org/2000/svg" viewBox="0 0 100 150">
  <defs>
    <style>
      .cls-1 {
        fill: #fff;
      }

      .cls-2 {
        fill: #412fa8;
      }

      .cls-3 {
        fill: #5050e2;
      }

      path {
        fill: #101024;
      }
    </style>
  </defs>
  <g id="Calque_3" data-name="Calque 3">
    <g>
      <rect class="cls-3" x="1.5" y="1.5" width="97" height="147" rx="10.5" ry="10.5"/>
      <path d="M88,3c4.96,0,9,4.04,9,9v126c0,4.96-4.04,9-9,9H12c-4.96,0-9-4.04-9-9V12C3,7.04,7.04,3,12,3h76M88,0H12C5.4,0,0,5.4,0,12v126c0,6.6,5.4,12,12,12h76c6.6,0,12-5.4,12-12V12c0-6.6-5.4-12-12-12h0Z"/>
    </g>
  </g>
  <g id="Calque_1" data-name="Calque 1">
    <g>
      <path class="cls-2" d="M26.39,120.11c-9.7-.02-16.96-3.51-20.99-10.09-5.19-8.46-4.26-21.02,2.55-34.45,12.76-25.19,42.18-45.68,65.57-45.68h.1c9.7.02,16.96,3.51,20.99,10.09,5.19,8.46,4.26,21.02-2.55,34.45-12.76,25.19-42.18,45.68-65.57,45.68h-.1Z"/>
      <path d="M73.51,31.39h.1c9.15.02,15.97,3.26,19.71,9.37,4.91,8.01,3.96,20.04-2.61,32.99-12.53,24.73-41.35,44.86-64.23,44.86h-.1c-9.15-.02-15.97-3.26-19.71-9.37-4.91-8.01-3.96-20.04,2.61-32.99,12.53-24.73,41.35-44.86,64.23-44.86M73.51,28.39c-23.95,0-53.88,20.8-66.9,46.5-13.04,25.74-4.19,46.66,19.77,46.72.04,0,.07,0,.1,0,23.95,0,53.88-20.8,66.9-46.5,13.04-25.74,4.19-46.66-19.77-46.72-.04,0-.07,0-.1,0h0Z"/>
    </g>
  </g>
  <g id="Calque_2" data-name="Calque 2">
    <g>
      <path class="cls-1" d="M50,115.26c-22.2,0-40.26-18.06-40.26-40.26s18.06-40.26,40.26-40.26,40.26,18.06,40.26,40.26-18.06,40.26-40.26,40.26ZM23.29,70.6c-.09.87-.14,1.74-.14,2.6,0,13.81,11.24,25.05,25.05,25.05,7.61,0,14.77-3.46,19.51-9.35l-44.42-18.3ZM73.17,75.7c.07-.67.07-1.3.07-2.5,0-13.81-11.24-25.05-25.05-25.05-5.83,0-11.38,1.99-15.84,5.66l40.82,21.89Z"/>
      <path d="M50,36.24c21.41,0,38.76,17.35,38.76,38.76s-17.35,38.76-38.76,38.76S11.24,96.41,11.24,75s17.35-38.76,38.76-38.76M74.31,78.01c.41-2.12.44-2.52.44-4.81,0-14.66-11.89-26.55-26.55-26.55-7.17,0-13.67,2.85-18.44,7.46l44.56,23.89M48.2,99.75c9.07,0,17.08-4.56,21.87-11.5l-47.99-19.77c-.28,1.53-.43,3.11-.43,4.72,0,14.66,11.89,26.55,26.55,26.55M50,33.24c-23.03,0-41.76,18.73-41.76,41.76s18.73,41.76,41.76,41.76,41.76-18.73,41.76-41.76-18.73-41.76-41.76-41.76h0ZM35.15,53.6c3.84-2.57,8.35-3.95,13.05-3.95,12.98,0,23.55,10.56,23.55,23.55v.03l-36.6-19.63h0ZM48.2,96.75c-12.98,0-23.55-10.56-23.55-23.55,0-.14,0-.28,0-.41l40.54,16.7c-4.41,4.6-10.53,7.26-17,7.26h0Z"/>
    </g>
    <g>
      <path class="cls-1" d="M21.65,33.34c-6.76,0-12.27-5.5-12.27-12.27s5.5-12.27,12.27-12.27,12.27,5.5,12.27,12.27-5.5,12.27-12.27,12.27ZM15.35,21.48c.44,2.81,2.88,4.97,5.81,4.97,1.27,0,2.48-.41,3.48-1.14l-9.28-3.83ZM26.89,19.31c-.58-2.63-2.93-4.61-5.74-4.61-.76,0-1.5.15-2.19.42l7.93,4.19Z"/>
      <path d="M21.65,10.31c5.95,0,10.77,4.82,10.77,10.77s-4.82,10.77-10.77,10.77-10.77-4.82-10.77-10.77,4.82-10.77,10.77-10.77M28.45,21.83c.15-.59.08-.62.08-1.25,0-4.07-3.3-7.38-7.38-7.38-1.99,0-3.8.79-5.12,2.07l12.42,6.55M21.15,27.95c2.52,0,4.75-1.27,6.08-3.2l-13.33-5.49c-.08.43-.12.86-.12,1.31,0,4.07,3.3,7.38,7.38,7.38M21.65,7.31c-7.59,0-13.77,6.18-13.77,13.77s6.18,13.77,13.77,13.77,13.77-6.18,13.77-13.77-6.18-13.77-13.77-13.77h0Z"/>
    </g>
    <g>
      <path class="cls-1" d="M78.84,140.5c-6.76,0-12.27-5.5-12.27-12.27s5.5-12.27,12.27-12.27,12.27,5.5,12.27,12.27-5.5,12.27-12.27,12.27ZM73.5,129.39c.33,2.93,2.82,5.22,5.84,5.22.81,0,1.59-.16,2.31-.47l-8.15-4.75ZM85.12,127.71c-.49-2.75-2.9-4.85-5.79-4.85-1.3,0-2.2.2-3.04.75l8.83,4.1Z"/>
      <path d="M78.84,117.47c5.95,0,10.77,4.82,10.77,10.77s-4.82,10.77-10.77,10.77-10.77-4.82-10.77-10.77,4.82-10.77,10.77-10.77M86.59,130.05c.08-.43.12-.86.12-1.31,0-4.07-3.3-7.38-7.38-7.38-2.52,0-4,.71-5.68,2.68l12.94,6.01M79.34,136.11c1.99,0,3.8-.79,5.12-2.07l-12.27-7.14c-.15.59-.23,1.2-.23,1.84,0,4.07,3.3,7.38,7.38,7.38M78.84,114.47c-7.59,0-13.77,6.18-13.77,13.77s6.18,13.77,13.77,13.77,13.77-6.18,13.77-13.77-6.18-13.77-13.77-13.77h0Z"/>
    </g>
  </g>
</svg>