<?xml version="1.0" encoding="UTF-8"?>
<svg xmlns="http://www.w3.org/2000/svg" xmlns:xlink="http://www.w3.org/1999/xlink" viewBox="0 0 100 150">
  <defs>
    <style>
      .cls-1 {
        stroke: #101024;
        stroke-miterlimit: 10;
        stroke-width: 3px;
      }

      .cls-1, .cls-2 {
        fill: #fff;
      }

      .cls-3 {
        fill: url(#Dégradé_sans_nom_35);
      }

      .cls-4 {
        fill: #e54545;
      }

      .cls-5 {
        fill: #368e36;
      }

      .cls-6 {
        fill: #ffc639;
      }

      .cls-7 {
        fill: #5050e2;
      }

      path {
        fill: #101024;
      }
    </style>
    <linearGradient id="Dégradé_sans_nom_35" data-name="Dégradé sans nom 35" x1="50" y1="9.67" x2="50" y2="140.57" gradientUnits="userSpaceOnUse">
      <stop offset="0" stop-color="#e54545"/>
      <stop offset=".26" stop-color="#ffc639"/>
      <stop offset=".73" stop-color="#368e36"/>
      <stop offset="1" stop-color="#5050e2"/>
    </linearGradient>
  </defs>
  <g id="Calque_3" data-name="Calque 3">
    <g>
      <rect class="cls-3" x="1.5" y="1.5" width="97" height="147" rx="10.5" ry="10.5"/>
      <path d="M88,3c4.96,0,9,4.04,9,9v126c0,4.96-4.04,9-9,9H12c-4.96,0-9-4.04-9-9V12C3,7.04,7.04,3,12,3h76M88,0H12C5.4,0,0,5.4,0,12v126c0,6.6,5.4,12,12,12h76c6.6,0,12-5.4,12-12V12C100,5.4,94.6,0,88,0h0Z"/>
    </g>
  </g>
  <g id="Calque_1" data-name="Calque 1">
    <g>
      <path d="M26.39,120.11c-9.7-.02-16.96-3.51-20.99-10.09-5.19-8.46-4.26-21.02,2.55-34.45,12.76-25.19,42.18-45.68,65.57-45.68h.1c9.7.02,16.96,3.51,20.99,10.09,5.19,8.46,4.26,21.02-2.55,34.46-12.76,25.19-42.18,45.68-65.57,45.68h-.1Z"/>
      <path d="M73.51,31.39h0,.1c9.15.02,15.97,3.26,19.71,9.37,4.91,8.01,3.96,20.04-2.61,32.99-12.53,24.73-41.35,44.86-64.23,44.86h-.1c-9.15-.02-15.97-3.26-19.71-9.37-4.91-8.01-3.96-20.04,2.61-32.99,12.53-24.73,41.35-44.86,64.23-44.86M73.51,28.39c-23.95,0-53.88,20.8-66.9,46.5-13.04,25.74-4.19,46.66,19.77,46.72.04,0,.07,0,.1,0,23.95,0,53.88-20.8,66.9-46.5,13.04-25.74,4.19-46.66-19.77-46.72-.04,0-.07,0-.1,0h0Z"/>
    </g>
  </g>
  <g id="Calque_4" data-name="Calque 4">
    <g>
      <path class="cls-2" d="M45.46,115.96c-5.93,0-10.41-1.5-13.31-4.47-2.25-2.31-3.29-4.56-2.93-6.34.77-3.72,7.7-5.81,12.29-7.2,4.23-1.28,6.79-2.05,6.61-4.2-.18-2.13-2.61-2.29-6.64-2.56-5.37-.36-14.37-.95-21.53-6.09-5.7-4.09-11.42-12-11.37-20.46.09-15.44,20.28-30.59,40.77-30.59h.17c16.42.07,36.36,10.93,40.99,30.92,5.42,23.42-14.78,43.4-31.45,48.82-.69.22-6.91,2.19-13.6,2.19Z"/>
      <path d="M49.36,32.54v3h.15c15.84.07,35.08,10.52,39.53,29.76,5.22,22.55-14.33,41.81-30.45,47.05-.67.22-6.69,2.11-13.14,2.11-5.51,0-9.63-1.35-12.23-4.02-2.65-2.72-2.65-4.4-2.53-4.99.59-2.84,7.27-4.86,11.26-6.07,4.61-1.39,7.95-2.4,7.67-5.76-.28-3.42-3.88-3.66-8.04-3.93-5.55-.37-13.94-.92-20.76-5.81-5.38-3.86-10.79-11.31-10.75-19.24.04-6.93,4.51-14.2,12.27-19.95,7.74-5.73,17.83-9.16,27-9.16v-3M49.35,32.54c-20.5,0-42.18,15.29-42.27,32.09-.05,8.5,5.44,16.99,12,21.69,11.69,8.38,27.36,5.19,27.56,7.56.21,2.49-17.36,3.59-18.88,10.97-.73,3.54,2.57,6.92,3.32,7.69,3.72,3.81,9.21,4.93,14.38,4.93,6.87,0,13.19-1.98,14.06-2.26,16.71-5.43,38.19-25.74,32.44-50.58-4.63-19.99-24.36-32.01-42.44-32.09-.06,0-.11,0-.17,0h0Z"/>
    </g>
    <path class="cls-1" d="M69.78,133.4c-1.5-6.48,4.1-11.77,8.46-13.19.4-.13,5.16-1.62,7.42.7.2.2,1.06,1.08.87,2.01-.4,1.93-4.98,2.21-4.92,2.86.05.62,4.14-.22,7.19,1.97,1.71,1.23,3.14,3.44,3.13,5.66-.02,4.39-5.71,8.39-11.07,8.37-4.72-.02-9.86-3.16-11.07-8.37Z"/>
    <path class="cls-1" d="M30.22,16.38c1.5,6.48-4.1,11.77-8.46,13.19-.4.13-5.16,1.62-7.42-.7-.2-.2-1.06-1.08-.87-2.01.4-1.93,4.98-2.21,4.92-2.86-.05-.62-4.14.22-7.19-1.97-1.71-1.23-3.14-3.44-3.13-5.66.02-4.39,5.71-8.39,11.07-8.37,4.72.02,9.86,3.16,11.07,8.37Z"/>
    <g>
      <path class="cls-4" d="M24.61,70.64c-3.66,0-6.64-2.98-6.64-6.63s2.98-6.64,6.64-6.64,6.64,2.98,6.64,6.64-2.98,6.63-6.64,6.63Z"/>
      <path d="M24.61,58.87c2.83,0,5.14,2.3,5.14,5.14s-2.3,5.14-5.14,5.14-5.14-2.3-5.14-5.14,2.3-5.14,5.14-5.14M24.61,55.87c-4.49,0-8.14,3.64-8.14,8.14s3.64,8.14,8.14,8.14,8.14-3.64,8.14-8.14-3.64-8.14-8.14-8.14h0Z"/>
    </g>
    <g>
      <path class="cls-5" d="M41.63,58.22c-3.66,0-6.64-2.98-6.64-6.64s2.98-6.63,6.64-6.63,6.64,2.98,6.64,6.63-2.98,6.64-6.64,6.64Z"/>
      <path d="M41.63,46.45c2.83,0,5.14,2.3,5.14,5.14s-2.3,5.14-5.14,5.14-5.14-2.3-5.14-5.14,2.3-5.14,5.14-5.14M41.63,43.45c-4.49,0-8.14,3.64-8.14,8.14s3.64,8.14,8.14,8.14,8.14-3.64,8.14-8.14-3.64-8.14-8.14-8.14h0Z"/>
    </g>
    <g>
      <path class="cls-6" d="M62.85,62.5c-3.66,0-6.64-2.98-6.64-6.64s2.98-6.64,6.64-6.64,6.64,2.98,6.64,6.64-2.98,6.64-6.64,6.64Z"/>
      <path d="M62.85,50.73c2.83,0,5.14,2.3,5.14,5.14s-2.3,5.14-5.14,5.14-5.14-2.3-5.14-5.14,2.3-5.14,5.14-5.14M62.85,47.73c-4.49,0-8.14,3.64-8.14,8.14s3.64,8.14,8.14,8.14,8.14-3.64,8.14-8.14-3.64-8.14-8.14-8.14h0Z"/>
    </g>
    <g>
      <path class="cls-7" d="M74.53,80.64c-3.66,0-6.64-2.98-6.64-6.64s2.98-6.63,6.64-6.63,6.64,2.98,6.64,6.63-2.98,6.64-6.64,6.64Z"/>
      <path d="M74.53,68.86c2.83,0,5.14,2.3,5.14,5.14s-2.3,5.14-5.14,5.14-5.14-2.3-5.14-5.14,2.3-5.14,5.14-5.14M74.53,65.86c-4.49,0-8.14,3.64-8.14,8.14s3.64,8.14,8.14,8.14,8.14-3.64,8.14-8.14-3.64-8.14-8.14-8.14h0Z"/>
    </g>
  </g>
</svg>