<?xml version="1.0" encoding="UTF-8"?>
<svg xmlns="http://www.w3.org/2000/svg" viewBox="0 0 100 150">
  <defs>
    <style>
      .cls-1 {
        fill: #fff;
      }

      .cls-2 {
        fill: #d39822;
      }

      .cls-3 {
        fill: #ffc639;
      }
    </style>
  </defs>
  <g id="Calque_3" data-name="Calque 3">
    <g>
      <rect class="cls-3" x="1.5" y="1.5" width="97" height="147" rx="10.5" ry="10.5"/>
      <path d="M88,3c4.96,0,9,4.04,9,9v126c0,4.96-4.04,9-9,9H12c-4.96,0-9-4.04-9-9V12C3,7.04,7.04,3,12,3h76M88,0H12C5.4,0,0,5.4,0,12v126c0,6.6,5.4,12,12,12h76c6.6,0,12-5.4,12-12V12c0-6.6-5.4-12-12-12h0Z"/>
    </g>
  </g>
  <g id="Calque_1" data-name="Calque 1">
    <g>
      <path class="cls-2" d="M26.39,120.11c-9.7-.02-16.96-3.51-20.99-10.09-5.19-8.46-4.26-21.02,2.55-34.45,12.76-25.19,42.18-45.68,65.57-45.68h.1c9.7.02,16.96,3.51,20.99,10.09,5.19,8.46,4.26,21.02-2.55,34.45-12.76,25.19-42.18,45.68-65.57,45.68h-.1Z"/>
      <path d="M73.51,31.39h.1c9.15.02,15.97,3.26,19.71,9.37,4.91,8.01,3.96,20.04-2.61,32.99-12.53,24.73-41.35,44.86-64.23,44.86h-.1c-9.15-.02-15.97-3.26-19.71-9.37-4.91-8.01-3.96-20.04,2.61-32.99,12.53-24.73,41.35-44.86,64.23-44.86M73.51,28.39c-23.95,0-53.88,20.8-66.9,46.5-13.04,25.74-4.19,46.66,19.77,46.72.04,0,.07,0,.1,0,23.95,0,53.88-20.8,66.9-46.5,13.04-25.74,4.19-46.66-19.77-46.72-.04,0-.07,0-.1,0h0Z"/>
    </g>
  </g>
  <g id="Calque_2" data-name="Calque 2">
    <g>
      <path class="cls-1" d="M48.91,121.57c-12.14-.17-27.35-1.42-30.91-6.45-3.58-5.07.7-19.93,4.93-31.51.52-1.42,1.77-2.41,3.26-2.6.17-.02.33-.03.5-.03,1.32,0,2.56.65,3.3,1.74l4.88,7.15c1.2-.52,2.55-1.08,3.97-1.67,7.39-3.04,18.56-7.65,19.38-12.82.28-1.79-.79-3.73-3.18-5.77-.62-.53-.97-1.37-.94-2.29.03-1.05.52-2.07,1.28-2.64.79-.6,1.8-.93,2.85-.93.46,0,.9.06,1.32.19,5.61,1.65,9.22,5.71,10.44,11.71,2,9.88-8.02,19.77-22.59,32.53l4.87,7.12c.85,1.24.93,2.83.22,4.15-.29.54-.71,1.02-1.21,1.37-.69.48-1.49.74-2.32.74h-.04ZM41.77,86.24c-.46,0-.9-.06-1.32-.19-5.61-1.65-9.22-5.71-10.44-11.71-2-9.88,8.02-19.77,22.59-32.53l-4.87-7.12c-.85-1.24-.93-2.83-.22-4.15.29-.54.71-1.02,1.21-1.37.69-.48,1.49-.74,2.32-.74,12.18.17,27.39,1.42,30.95,6.45,3.58,5.07-.7,19.93-4.93,31.51-.52,1.42-1.77,2.41-3.26,2.6-.17.02-.33.03-.5.03-1.32,0-2.56-.65-3.3-1.74l-4.88-7.15c-1.2.52-2.55,1.08-3.97,1.67-7.39,3.04-18.56,7.65-19.38,12.82-.28,1.79.79,3.73,3.18,5.77.62.53.97,1.37.94,2.29-.03,1.05-.52,2.07-1.28,2.64-.79.6-1.8.93-2.85.93Z"/>
      <path d="M51.04,29.93s.02,0,.03,0c7.77.1,26.21.88,29.7,5.81,3.51,4.96-2.41,22.72-5.12,30.13-.32.88-1.11,1.51-2.04,1.62-.1.01-.21.02-.31.02-.82,0-1.59-.4-2.06-1.09l-5.59-8.18c-9.61,4.45-34.92,12.01-21.67,23.29.7.59.46,2.04-.27,2.59-.57.43-1.27.63-1.94.63-.31,0-.62-.04-.9-.12-6.01-1.77-8.51-6.21-9.39-10.57-1.86-9.17,8.26-19.02,23.11-31.98l-5.62-8.22c-.53-.77-.58-1.77-.14-2.59.19-.35.45-.64.76-.86.42-.29.92-.46,1.45-.46M58.23,65.26c.31,0,.62.04.9.12,6.01,1.77,8.51,6.21,9.39,10.57,1.86,9.17-8.26,19.02-23.11,31.98l5.62,8.22c.53.77.58,1.77.14,2.59-.19.35-.45.64-.76.86-.42.29-.92.46-1.45.46-.01,0-.02,0-.03,0-7.77-.1-26.21-.88-29.7-5.81-3.51-4.96,2.41-22.72,5.12-30.13.32-.88,1.11-1.51,2.04-1.62.1-.01.21-.02.31-.02.82,0,1.59.4,2.06,1.09l5.59,8.18c9.61-4.45,34.92-12.01,21.67-23.29-.7-.59-.46-2.04.27-2.59.57-.43,1.27-.63,1.94-.63M51.04,26.93h0c-1.15,0-2.24.35-3.18,1.01-.69.49-1.27,1.14-1.67,1.89-.98,1.82-.86,4,.31,5.71l4.12,6.02c-14.41,12.68-24.19,22.66-22.07,33.08,1.2,5.92,4.53,10.11,9.67,12.22-.97.4-1.91.79-2.79,1.16l-4.19-6.13c-1.03-1.5-2.72-2.4-4.54-2.4-.23,0-.46.01-.69.04-2.05.25-3.77,1.62-4.48,3.57-6.33,17.33-7.93,28.39-4.75,32.89,3.15,4.45,13.95,6.83,32.11,7.08h.02s.05,0,.05,0c1.15,0,2.24-.35,3.18-1.01.69-.49,1.27-1.14,1.67-1.89.98-1.82.86-4-.31-5.71l-4.12-6.02c14.41-12.68,24.19-22.66,22.07-33.08-1.2-5.92-4.53-10.11-9.67-12.22.97-.4,1.91-.79,2.79-1.16l4.19,6.13c1.03,1.5,2.72,2.4,4.54,2.4.23,0,.46-.01.69-.04,2.05-.25,3.77-1.62,4.48-3.57,6.33-17.33,7.93-28.39,4.75-32.89-3.15-4.45-13.95-6.83-32.11-7.08h-.02s-.05,0-.05,0h0ZM47.39,82.81s0-.06,0-.1c.04-1.38-.5-2.65-1.47-3.47-1.35-1.15-2.92-2.85-2.67-4.4.41-2.58,4.67-5.32,9.36-7.65,0,.03,0,.06,0,.1-.04,1.38.5,2.65,1.47,3.47,1.35,1.15,2.92,2.85,2.67,4.4-.41,2.58-4.67,5.32-9.36,7.65h0Z"/>
    </g>
    <g>
      <path class="cls-1" d="M81.77,141.89c-7.85-.11-8.94-1.65-9.35-2.23-.42-.59-1.52-2.15,1.22-9.63.28-.77.97-1.32,1.78-1.42h.09s.15-.02.15-.02c-.05-.17-.09-.34-.13-.52-.62-3.08,1.94-5.87,5.81-9.31l-.79-1.16c-.46-.68-.51-1.55-.12-2.27.16-.29.39-.56.67-.75.37-.26.8-.4,1.26-.4,7.87.1,8.96,1.65,9.37,2.23.42.59,1.52,2.15-1.22,9.63-.28.77-.97,1.32-1.78,1.42h-.09s-.15.02-.15.02c.05.17.09.34.13.52.62,3.08-1.94,5.87-5.81,9.31l.79,1.16c.46.67.51,1.54.12,2.26-.17.31-.4.56-.67.76-.37.26-.81.4-1.26.4h-.01ZM80.9,128.11s.06.21.5.58c.17.14.3.31.41.5.77-.43,1.38-.86,1.45-1.2h0s-.06-.21-.5-.58c-.17-.14-.3-.31-.4-.5-.77.43-1.38.86-1.45,1.2h0Z"/>
      <path d="M82.36,115.7s0,0,0,0c2.13.03,7.18.24,8.13,1.59.96,1.36-.66,6.22-1.4,8.25-.09.24-.3.41-.56.44-.03,0-.06,0-.09,0-.22,0-.44-.11-.57-.3l-1.53-2.24c-2.63,1.22-9.56,3.29-5.93,6.38.19.16.12.56-.07.71-.16.12-.35.17-.53.17-.09,0-.17-.01-.25-.03-1.65-.49-2.33-1.7-2.57-2.9-.51-2.51,2.26-5.21,6.33-8.76l-1.54-2.25c-.14-.21-.16-.48-.04-.71.05-.1.12-.18.21-.24.11-.08.25-.13.4-.13M84.33,125.38c.09,0,.17.01.25.03,1.65.48,2.33,1.7,2.57,2.9.51,2.51-2.26,5.21-6.33,8.76l1.54,2.25c.14.21.16.48.04.71-.05.1-.12.18-.21.24-.11.08-.25.13-.4.13,0,0,0,0,0,0-2.13-.03-7.18-.24-8.13-1.59-.96-1.36.66-6.22,1.4-8.25.09-.24.3-.41.56-.44.03,0,.06,0,.09,0,.22,0,.44.11.57.3l1.53,2.24c2.63-1.22,9.56-3.29,5.93-6.38-.19-.16-.12-.56.07-.71.16-.12.35-.17.53-.17M82.36,112.7c-.77,0-1.5.23-2.13.68-.46.33-.85.77-1.12,1.27-.65,1.22-.58,2.68.2,3.82l.05.07c-3.03,2.75-5.62,5.65-5.41,9-.78.42-1.4,1.12-1.72,1.99-2.65,7.25-2.01,9.63-1.03,11.01.96,1.36,2.96,2.76,10.54,2.86h0c.81,0,1.55-.23,2.17-.68.46-.33.85-.77,1.12-1.27.65-1.22.58-2.68-.2-3.82l-.05-.07c3.03-2.75,5.62-5.65,5.41-9,.78-.42,1.4-1.12,1.72-1.99,2.65-7.25,2.01-9.63,1.03-11.01-.96-1.36-2.96-2.76-10.54-2.86h-.02s-.03,0-.03,0h0Z"/>
    </g>
    <g>
      <path class="cls-1" d="M17.88,35.9c-7.84-.1-8.93-1.64-9.34-2.22-.42-.59-1.52-2.15,1.22-9.63.28-.77.97-1.32,1.78-1.42h.09s.15-.02.15-.02c-.05-.17-.09-.34-.13-.52-.62-3.08,1.94-5.87,5.81-9.31l-.79-1.16c-.46-.68-.51-1.54-.12-2.26.17-.31.4-.57.68-.76.36-.25.79-.39,1.25-.39,7.87.1,8.96,1.64,9.37,2.22.42.59,1.52,2.15-1.22,9.63-.28.77-.97,1.32-1.79,1.42h-.09s-.15.02-.15.02c.05.17.09.34.13.52.63,3.08-1.94,5.86-5.81,9.3l.79,1.16c.46.68.51,1.55.12,2.27-.16.29-.38.55-.66.75-.38.27-.81.4-1.27.4h-.03ZM17.01,22.12s.06.21.5.58c.17.14.3.31.41.5.77-.43,1.38-.86,1.45-1.2h0s-.06-.21-.5-.58c-.17-.14-.3-.31-.4-.5-.77.43-1.38.86-1.45,1.2h0Z"/>
      <path d="M18.47,9.71s0,0,0,0c2.13.03,7.18.24,8.13,1.59.96,1.36-.66,6.22-1.4,8.25-.09.24-.3.41-.56.44-.03,0-.06,0-.09,0-.22,0-.44-.11-.57-.3l-1.53-2.24c-2.63,1.22-9.56,3.29-5.93,6.38.19.16.12.56-.07.71-.16.12-.35.17-.53.17-.09,0-.17-.01-.25-.03-1.65-.48-2.33-1.7-2.57-2.9-.51-2.51,2.26-5.21,6.33-8.76l-1.54-2.25c-.14-.21-.16-.48-.04-.71.05-.1.12-.18.21-.24.11-.08.25-.13.4-.13M20.44,19.39c.09,0,.17.01.25.03,1.65.49,2.33,1.7,2.57,2.9.51,2.51-2.26,5.21-6.33,8.76l1.54,2.25c.14.21.16.48.04.71-.05.1-.12.18-.21.24-.11.08-.25.13-.4.13,0,0,0,0,0,0-2.13-.03-7.18-.24-8.13-1.59-.96-1.36.66-6.22,1.4-8.25.09-.24.3-.41.56-.44.03,0,.06,0,.09,0,.22,0,.44.11.57.3l1.53,2.24c2.63-1.22,9.56-3.29,5.93-6.38-.19-.16-.12-.56.07-.71.16-.12.35-.17.53-.17M18.47,6.71c-.77,0-1.5.23-2.13.68-.46.33-.85.76-1.12,1.27-.65,1.22-.58,2.68.2,3.82l.05.07c-3.03,2.75-5.62,5.65-5.41,9-.78.42-1.4,1.12-1.72,1.99-2.65,7.25-2.01,9.63-1.03,11.01.96,1.36,2.96,2.76,10.54,2.86h0c.81,0,1.55-.23,2.18-.68.46-.33.85-.76,1.12-1.26.65-1.22.58-2.68-.2-3.82l-.05-.07c3.03-2.75,5.62-5.65,5.41-9,.78-.42,1.4-1.12,1.72-1.99,2.65-7.25,2.01-9.63,1.03-11.01-.96-1.36-2.96-2.76-10.54-2.86h-.02s-.03,0-.03,0h0Z"/>
    </g>
  </g>
</svg>