<?xml version="1.0" encoding="UTF-8"?>
<svg xmlns="http://www.w3.org/2000/svg" viewBox="0 0 100 150">
  <defs>
    <style>
      .cls-1, .cls-2 {
        font-size: 36px;
      }

      .cls-1, .cls-2, .cls-3, .cls-4 {
        font-family: CooperBlack, 'Cooper Black';
      }

      .cls-1, .cls-3 {
        fill: none;
        stroke: #101024;
        stroke-width: 6px;
      }

      .cls-5 {
        fill: #d39822;
      }

      .cls-2, .cls-4 {
        fill: #fff;
      }

      .cls-6 {
        fill: #ffc639;
      }

      .cls-3, .cls-4 {
        font-size: 120px;
      }

      path {
        fill: #101024;
      }
    </style>
  </defs>
  <g id="Calque_3" data-name="Calque 3">
    <g>
      <rect class="cls-6" x="1.5" y="1.5" width="97" height="147" rx="10.5" ry="10.5"/>
      <path d="M88,3c4.96,0,9,4.04,9,9v126c0,4.96-4.04,9-9,9H12c-4.96,0-9-4.04-9-9V12C3,7.04,7.04,3,12,3h76M88,0H12C5.4,0,0,5.4,0,12v126c0,6.6,5.4,12,12,12h76c6.6,0,12-5.4,12-12V12c0-6.6-5.4-12-12-12h0Z"/>
    </g>
  </g>
  <g id="Calque_1" data-name="Calque 1">
    <g>
      <path class="cls-5" d="M26.39,120.11c-9.7-.02-16.96-3.51-20.99-10.09-5.19-8.46-4.26-21.02,2.55-34.45,12.76-25.19,42.18-45.68,65.57-45.68h.1c9.7.02,16.96,3.51,20.99,10.09,5.19,8.46,4.26,21.02-2.55,34.45-12.76,25.19-42.18,45.68-65.57,45.68h-.1Z"/>
      <path d="M73.51,31.39h0,.1c9.15.02,15.97,3.26,19.71,9.37,4.91,8.01,3.96,20.04-2.61,32.99-12.53,24.73-41.35,44.86-64.23,44.86h-.1c-9.15-.02-15.97-3.26-19.71-9.37-4.91-8.01-3.96-20.04,2.61-32.99,12.53-24.73,41.35-44.86,64.23-44.86M73.51,28.39c-23.95,0-53.88,20.8-66.9,46.5-13.04,25.74-4.19,46.66,19.77,46.72.04,0,.07,0,.1,0,23.95,0,53.88-20.8,66.9-46.5,13.04-25.74,4.19-46.66-19.77-46.72-.04,0-.07,0-.1,0h0Z"/>
    </g>
  </g>
  <g id="Calque_2" data-name="Calque 2">
    <g>
      <text class="cls-3" transform="translate(14.99 103.34)"><tspan x="0" y="0">5</tspan></text>
      <text class="cls-4" transform="translate(14.99 103.34)"><tspan x="0" y="0">5</tspan></text>
    </g>
    <g>
      <text class="cls-1" transform="translate(9.74 30.39)"><tspan x="0" y="0">5</tspan></text>
      <text class="cls-2" transform="translate(9.74 30.39)"><tspan x="0" y="0">5</tspan></text>
    </g>
    <g>
      <text class="cls-1" transform="translate(89.74 119.4) rotate(-180)"><tspan x="0" y="0">5</tspan></text>
      <text class="cls-2" transform="translate(89.74 119.4) rotate(-180)"><tspan x="0" y="0">5</tspan></text>
    </g>
  </g>
</svg>